<svg xmlns="http://www.w3.org/2000/svg" viewBox="0 0 300 300" width="300" height="300">
  <style>
    /* Dot blink — each with unique timing */
    .dot { opacity: 0; animation-name: blink; animation-timing-function: ease-in-out; animation-iteration-count: infinite; }
    .dot-r0 { animation-delay: 0s;   animation-duration: 3.2s; }
    .dot-r1 { animation-delay: 1.3s; animation-duration: 2.4s; }
    .dot-r2 { animation-delay: 0.5s; animation-duration: 4.1s; }
    .dot-r3 { animation-delay: 2.8s; animation-duration: 2.8s; }
    .dot-r4 { animation-delay: 1.1s; animation-duration: 3.6s; }
    .dot-r5 { animation-delay: 3.4s; animation-duration: 2.1s; }

    @keyframes blink {
      0%   { opacity: 0; }
      15%  { opacity: 1; }
      50%  { opacity: 0.15; }
      85%  { opacity: 0.9; }
      100% { opacity: 0; }
    }

    /* Node pulse */
    .pulse { animation: pulse 3s ease-in-out infinite; }
    .pulse-d0 { animation-delay: 0s; }
    .pulse-d1 { animation-delay: 0.5s; }
    .pulse-d2 { animation-delay: 1.0s; }
    .pulse-d3 { animation-delay: 1.5s; }
    .pulse-d4 { animation-delay: 2.0s; }
    .pulse-d5 { animation-delay: 2.5s; }

    @keyframes pulse { 0%, 100% { stroke-width: 3; } 50% { stroke-width: 4.5; } }

    /* Global clockwise rotation */
    .constellation { transform-origin: 150px 150px; animation: spinCW 120s linear infinite; }
    @keyframes spinCW { to { transform: rotate(360deg); } }

    /* Counter-rotation for symbols */
    .counter-spin-0   { transform-origin: 0px -85px;      animation: spinCCW 120s linear infinite; }
    .counter-spin-1   { transform-origin: 73.6px -42.5px;  animation: spinCCW 120s linear infinite; }
    .counter-spin-2   { transform-origin: 73.6px 42.5px;   animation: spinCCW 120s linear infinite; }
    .counter-spin-3   { transform-origin: 0px 85px;        animation: spinCCW 120s linear infinite; }
    .counter-spin-4   { transform-origin: -73.6px 42.5px;  animation: spinCCW 120s linear infinite; }
    .counter-spin-5   { transform-origin: -73.6px -42.5px; animation: spinCCW 120s linear infinite; }
    .counter-spin-ctr { transform-origin: 0px 0px;         animation: spinCCW 120s linear infinite; }
    @keyframes spinCCW { to { transform: rotate(-360deg); } }
  </style>

  <g class="constellation">
    <g transform="translate(150,150)">

      <!-- Spokes -->
      <line x1="0" y1="0" x2="0" y2="-85" stroke="#5B5FD6" stroke-width="3"/>
      <line x1="0" y1="0" x2="73.6" y2="-42.5" stroke="#5B5FD6" stroke-width="3"/>
      <line x1="0" y1="0" x2="73.6" y2="42.5" stroke="#3D8FD6" stroke-width="3"/>
      <line x1="0" y1="0" x2="0" y2="85" stroke="#3D8FD6" stroke-width="2.5"/>
      <line x1="0" y1="0" x2="-73.6" y2="42.5" stroke="#2ABBC8" stroke-width="2.5"/>
      <line x1="0" y1="0" x2="-73.6" y2="-42.5" stroke="#2A9DA8" stroke-width="3"/>

      <!-- Hexagon -->
      <line x1="0" y1="-85" x2="73.6" y2="-42.5" stroke="#5B5FD6" stroke-width="2"/>
      <line x1="73.6" y1="-42.5" x2="73.6" y2="42.5" stroke="#3D8FD6" stroke-width="2"/>
      <line x1="73.6" y1="42.5" x2="0" y2="85" stroke="#3D8FD6" stroke-width="1.8"/>
      <line x1="0" y1="85" x2="-73.6" y2="42.5" stroke="#2ABBC8" stroke-width="1.8"/>
      <line x1="-73.6" y1="42.5" x2="-73.6" y2="-42.5" stroke="#2ABBC8" stroke-width="2"/>
      <line x1="-73.6" y1="-42.5" x2="0" y2="-85" stroke="#2A9DA8" stroke-width="2"/>

      <!-- Extensions -->
      <line x1="0" y1="-85" x2="0" y2="-130" stroke="#5B5FD6" stroke-width="1.5"/>
      <line x1="73.6" y1="-42.5" x2="112.6" y2="-65" stroke="#5B5FD6" stroke-width="1.5"/>
      <line x1="73.6" y1="42.5" x2="112.6" y2="65" stroke="#3D8FD6" stroke-width="1.5"/>
      <line x1="0" y1="85" x2="0" y2="130" stroke="#3D8FD6" stroke-width="1.2"/>
      <line x1="-73.6" y1="42.5" x2="-112.6" y2="65" stroke="#2ABBC8" stroke-width="1.2"/>
      <line x1="-73.6" y1="-42.5" x2="-112.6" y2="-65" stroke="#2A9DA8" stroke-width="1.5"/>

      <!-- Satellites -->
      <circle cx="0" cy="-130" r="10" fill="none" stroke="#5B5FD6" stroke-width="2.5"/>
      <circle cx="112.6" cy="-65" r="10" fill="none" stroke="#5B5FD6" stroke-width="2.5"/>
      <circle cx="112.6" cy="65" r="9" fill="none" stroke="#3D8FD6" stroke-width="2"/>
      <circle cx="0" cy="130" r="8" fill="none" stroke="#3D8FD6" stroke-width="2"/>
      <circle cx="-112.6" cy="65" r="8" fill="none" stroke="#2ABBC8" stroke-width="2"/>
      <circle cx="-112.6" cy="-65" r="10" fill="none" stroke="#2A9DA8" stroke-width="2.5"/>

      <!-- Inner nodes with counter-rotating symbols -->
      <g>
        <circle cx="0" cy="-85" r="19" fill="white"/>
        <circle class="pulse pulse-d0" cx="0" cy="-85" r="18" fill="none" stroke="#5B5FD6" stroke-width="3.5"/>
        <g class="counter-spin-0"><path d="M -8,-90 A 10,10 0 0,1 8,-80" fill="none" stroke="#5B5FD6" stroke-width="3" stroke-linecap="round"/></g>
      </g>
      <g>
        <circle cx="73.6" cy="-42.5" r="17" fill="white"/>
        <circle class="pulse pulse-d1" cx="73.6" cy="-42.5" r="16" fill="none" stroke="#3D8FD6" stroke-width="3"/>
        <g class="counter-spin-1"><line x1="65.6" y1="-36.5" x2="81.6" y2="-48.5" stroke="#3D8FD6" stroke-width="3" stroke-linecap="round"/></g>
      </g>
      <g>
        <circle cx="73.6" cy="42.5" r="17" fill="white"/>
        <circle class="pulse pulse-d2" cx="73.6" cy="42.5" r="16" fill="none" stroke="#3D8FD6" stroke-width="3"/>
        <g class="counter-spin-2"><rect x="66.6" y="35.5" width="14" height="14" rx="2" fill="none" stroke="#3D8FD6" stroke-width="2.5"/></g>
      </g>
      <g>
        <circle cx="0" cy="85" r="16" fill="white"/>
        <circle class="pulse pulse-d3" cx="0" cy="85" r="15" fill="none" stroke="#2ABBC8" stroke-width="3"/>
        <g class="counter-spin-3"><circle cx="0" cy="85" r="6" fill="#2ABBC8"/></g>
      </g>
      <g>
        <circle cx="-73.6" cy="42.5" r="16" fill="white"/>
        <circle class="pulse pulse-d4" cx="-73.6" cy="42.5" r="15" fill="none" stroke="#2ABBC8" stroke-width="2.5"/>
        <g class="counter-spin-4"><path d="M -81.6,50.5 L -73.6,32.5 L -65.6,50.5 Z" fill="none" stroke="#2ABBC8" stroke-width="2.5" stroke-linejoin="round"/></g>
      </g>
      <g>
        <circle cx="-73.6" cy="-42.5" r="17" fill="white"/>
        <circle class="pulse pulse-d5" cx="-73.6" cy="-42.5" r="16" fill="none" stroke="#2A9DA8" stroke-width="3"/>
        <g class="counter-spin-5"><path d="M -81.6,-47.5 A 10,10 0 0,0 -65.6,-37.5" fill="none" stroke="#2A9DA8" stroke-width="3" stroke-linecap="round"/></g>
      </g>

      <!-- Center hub -->
      <circle cx="0" cy="0" r="25" fill="white"/>
      <circle cx="0" cy="0" r="24" fill="none" stroke="#5B5FD6" stroke-width="4"/>
      <g class="counter-spin-ctr">
        <rect x="-12" y="-2" width="7" height="14" rx="1.5" fill="none" stroke="#5B5FD6" stroke-width="2"/>
        <rect x="-3" y="-10" width="7" height="22" rx="1.5" fill="none" stroke="#3D8FD6" stroke-width="2"/>
        <rect x="6" y="-5" width="7" height="17" rx="1.5" fill="none" stroke="#2ABBC8" stroke-width="2"/>
      </g>

      <!-- Accent dots -->
      <circle class="dot dot-r0" cx="42" cy="-70" r="4" fill="#5B5FD6"/>
      <circle class="dot dot-r1" cx="88" cy="5" r="3.5" fill="#3D8FD6"/>
      <circle class="dot dot-r2" cx="35" cy="72" r="3" fill="#2ABBC8"/>
      <circle class="dot dot-r3" cx="-45" cy="65" r="3" fill="#2ABBC8"/>
      <circle class="dot dot-r4" cx="-82" cy="-8" r="3.5" fill="#2A9DA8"/>
      <circle class="dot dot-r5" cx="-38" cy="-72" r="3" fill="#2A9DA8"/>
    </g>
  </g>
</svg>
